<svg id="Layer_1" data-name="Layer 1" xmlns="http://www.w3.org/2000/svg" xmlns:xlink="http://www.w3.org/1999/xlink" width="660.97" height="230.08" viewBox="0 0 660.97 230.08"><defs><clipPath id="clip-path"><path id="SVGID" d="M21.68,169.15h0A29.9,29.9,0,0,1,60.1,188.86h0a32.15,32.15,0,0,1-20.3,39.59h0A29.92,29.92,0,0,1,1.37,208.74h0A32.15,32.15,0,0,1,21.68,169.15Z" fill="none"/></clipPath></defs><path d="M184.67,80.89l.06-1.5ZM237.13,166l0-1.5ZM660.22,25.47a1.49,1.49,0,0,0,.54-2l-6.83-11.68a1.49,1.49,0,0,0-2-.54,1.51,1.51,0,0,0-.54,2.05l6.07,10.38-10.35,6a1.49,1.49,0,0,0-.54,2.05,1.52,1.52,0,0,0,2.06.55ZM25.14,170.13c-5.75-16.17-4.86-39.94,16.67-58.75s64.34-33,142.79-29l.13-3c-78.71-4-122.39,10.06-144.9,29.72s-23.6,44.9-17.51,62ZM184.6,82.39c49.05,2.52,80.26,9,98.63,17.25,9.18,4.12,15,8.62,18.34,13.17a16.47,16.47,0,0,1,3.12,13.63c-1,4.6-3.84,9.25-8.14,13.69a70.65,70.65,0,0,1-16.43,12.14c-12.95,7.15-28.92,11.91-43,12.22l.08,3c14.67-.32,31.1-5.24,44.41-12.59a73.78,73.78,0,0,0,17.13-12.67c4.54-4.68,7.77-9.82,8.91-15.15a19.47,19.47,0,0,0-3.63-16c-3.73-5.13-10.1-9.91-19.54-14.14-18.89-8.47-50.55-15-99.72-17.52Zm52.49,82.1c-21,.46-43.73-3.81-63.5-11.38s-36.44-18.42-45.44-31c-4.48-6.25-7-12.89-7.21-19.75s2-14.06,7.33-21.48C138.88,66,161.83,50.33,202.19,35.52l-1.05-2.81C160.62,47.58,137,63.49,125.82,79.15c-5.6,7.86-8.07,15.7-7.88,23.29s3,14.8,7.78,21.43c9.48,13.23,26.74,24.35,46.81,32s43.22,12,64.64,11.58Zm-34.9-129C282.77,6,390.54,1.74,481.51,5.82s164.86,16.42,177.58,19.8l.76-2.9c-13-3.46-87.15-15.82-178.22-19.9s-199.32.1-280.49,29.89Z" fill="#ff5766"/><g clip-path="url(#clip-path)"><path d="M21.68,169.15h0A29.9,29.9,0,0,1,60.1,188.86h0a32.15,32.15,0,0,1-20.3,39.59h0A29.92,29.92,0,0,1,1.37,208.74h0A32.15,32.15,0,0,1,21.68,169.15Z" fill="#fff"/><path d="M25.05,180.19a19.94,19.94,0,0,0-9.28,6.61,20.32,20.32,0,0,0-4.24,10.65,19.57,19.57,0,0,0,2.24,11.11,18.71,18.71,0,0,0,19,9.72,19.69,19.69,0,0,0,10.33-4.67A20.29,20.29,0,0,0,49.23,204a19.89,19.89,0,0,0-.06-11.39,18.79,18.79,0,0,0-24.12-12.37ZM38.75,225a26.78,26.78,0,0,1-15.77.47,26.28,26.28,0,0,1-13.16-8.53,27.18,27.18,0,0,1-6.1-14.64,28.49,28.49,0,0,1,14.1-27.49,27.22,27.22,0,0,1,15.45-3.58,26.23,26.23,0,0,1,14.6,5.71A26.67,26.67,0,0,1,56.69,190a28.43,28.43,0,0,1-17.94,35Z" fill="#ff5766" fill-rule="evenodd"/><path d="M25.68,187.72l-1.69,13a1.8,1.8,0,0,0,.46,1.46L32.81,211a1.67,1.67,0,0,0,.7.44,1.63,1.63,0,0,0,.82.07,1.69,1.69,0,0,0,.77-.32,1.82,1.82,0,0,0,.55-.65,1.72,1.72,0,0,0,.19-.58l1.75-12.24a1.82,1.82,0,0,0-.05-.77,1.79,1.79,0,0,0-.37-.66l-8.4-9.6a1.81,1.81,0,0,0-.84-.52,1.71,1.71,0,0,0-1,0,1.85,1.85,0,0,0-.83.58,1.91,1.91,0,0,0-.41.93Zm7.2,18.12,1.1-7.73h0l-5.31-6.06-1.07,8.21Z" fill="#ff5766" fill-rule="evenodd"/></g><path d="M269.92,3.79l24,21.74" fill="none" stroke="#ff5766" stroke-linecap="round" stroke-width="3"/><path d="M291.71,1.5l-20.7,24" fill="none" stroke="#ff5766" stroke-linecap="round" stroke-width="3"/><path d="M237.17,154.76l24,21.75" fill="none" stroke="#ff5766" stroke-linecap="round" stroke-width="3"/><path d="M259,152.47l-20.69,24" fill="none" stroke="#ff5766" stroke-linecap="round" stroke-width="3"/></svg>