<?xml version="1.0" encoding="UTF-8"?>
<svg id="Layer_1" data-name="Layer 1" xmlns="http://www.w3.org/2000/svg" viewBox="0 0 1200 1000">
  <defs>
    <style>
      .cls-1 {
        fill: #5371ff;
      }

      .cls-2 {
        fill: #ffde59;
      }
    </style>
  </defs>
  <g>
    <path class="cls-2" d="m598.67,429.03v11.03c-9.05-9.34-20.37-14.21-33.49-14.21-29.51,0-50.27,23.45-50.27,53.86s20.77,54.24,50.27,54.24c13.11,0,24.44-4.87,33.49-14.21v11.03h35.37v-101.74h-35.37Zm-22.75,74.92c-13.72,0-23.75-10.14-23.75-24.05s10.03-24.05,23.75-24.05,23.55,10.03,23.55,24.05-9.95,24.05-23.55,24.05Z"/>
    <path class="cls-2" d="m711.46,500.47c-2.08,1.29-4.38,1.9-6.66,1.9-5.16,0-7.85-3.49-7.85-10.04v-36.46h21.46v-26.83h-21.46v-38.16h-35.37v38.16h-14.61v26.83h14.61v39.14c0,24.44,12.72,38.95,34.49,38.95,9.43,0,20.16-2.77,27.82-7.35l-12.42-26.14Z"/>
    <path class="cls-2" d="m790.95,505.14c-15.11,0-25.54-10.92-25.54-25.23s10.43-25.24,25.54-25.24c5.97,0,11.62,1.59,15.6,4.38l12.21-23.55c-7.15-5.46-19.57-9.64-33.29-9.64-32.59,0-57.42,23.55-57.42,54.06s24.84,54.05,57.42,54.05c13.72,0,26.14-4.17,33.29-9.64l-12.21-23.54c-3.98,2.77-9.64,4.36-15.6,4.36Z"/>
    <path class="cls-2" d="m902.25,425.85c-13.32,0-25.64,5.26-34.09,13.72v-79.69h-35.36v170.9h35.36v-58.32c0-11.03,7.56-19.08,19.58-19.08s19.28,7.75,19.28,20.37v57.03h35.37v-64.68c0-23.44-16.9-40.24-40.14-40.24Z"/>
  </g>
  <g>
    <path class="cls-1" d="m323.56,588.1h21.34v7.73c5.33-6.77,11.09-9.65,18.4-9.65,9.23,0,17.5,4.44,20.92,11.27,6.35-7.61,12.77-11.27,21.22-11.27,13.36,0,23.02,8.93,23.02,22.42v40.88h-21.34v-35.12c0-6.95-3.9-11.21-10.01-11.21s-10.43,4.08-10.43,10.91v35.42h-21.34v-35.3c0-6.65-3.66-11.03-9.95-11.03s-10.49,4.26-10.49,11.51v34.82h-21.34v-61.37Z"/>
    <path class="cls-1" d="m456.38,588.1l17.08,31.47,14.56-31.47h24.51l-48.37,92.54h-24.45l21.28-40.76-29.13-51.78h24.51Z"/>
    <path class="cls-1" d="m512.67,600.09c0-28.47,22.48-51.31,53.22-51.31,12.05,0,23.68,3.72,31.35,9.05l-10.85,18.46c-4.85-3.42-11.93-5.39-19.06-5.39-18.94,0-30.27,12.59-30.27,29.13s11.33,29.25,30.27,29.25c7.13,0,14.21-1.98,19.06-5.39l10.85,18.46c-7.67,5.33-19.3,9.05-31.35,9.05-30.75,0-53.22-22.84-53.22-51.31Z"/>
    <path class="cls-1" d="m637.94,586.18c20.68,0,36.62,13.43,36.62,32.61s-15.94,32.61-36.62,32.61-36.62-13.43-36.62-32.61,15.94-32.61,36.62-32.61Zm0,47.05c7.97,0,14.32-5.93,14.32-14.44s-6.35-14.44-14.32-14.44-14.33,5.93-14.33,14.44,6.35,14.44,14.33,14.44Z"/>
    <path class="cls-1" d="m683.14,621v-32.9h21.34v27.69c0,12.71,3.3,18.34,12.05,18.34s11.99-5.63,11.99-18.34v-27.69h21.34v32.9c0,20.44-10.19,30.39-33.33,30.39s-33.38-9.95-33.38-30.39Z"/>
    <path class="cls-1" d="m762.92,588.1h21.34v9.59c4.61-7.61,11.81-11.51,19.42-11.51,4.85,0,9.71,1.62,13.07,3.84l-8.93,17.98c-2.88-2.04-6.59-3.36-10.31-3.36-7.37,0-13.25,5.45-13.25,14.92v29.91h-21.34v-61.37Z"/>
    <path class="cls-1" d="m825.62,629.63c4.67,4.02,10.25,6.11,14.98,6.11,3.78,0,6.53-1.5,6.53-4.38s-2.7-4.38-8.63-6.53c-7.79-2.88-19.06-7.37-19.06-19,0-11.03,10.13-19.54,25.59-19.54,7.61,0,15.16,2.1,21.46,5.99l-6.65,12.17c-3.84-2.52-8.81-3.9-13.25-3.9s-6.89,1.74-6.89,4.02c0,2.82,3.48,4.68,11.27,7.43,12.05,4.32,18.58,10.13,18.58,19.84,0,12.41-10.19,19.54-26.85,19.54-10.25,0-18.22-2.76-25.41-8.93l8.33-12.83Z"/>
    <path class="cls-1" d="m910.26,586.18c18.76,0,32.13,13.19,32.13,31.47,0,1.2-.06,2.28-.24,4.02h-44.65c0,7.79,5.69,12.83,14.56,12.83,5.51,0,9.29-1.92,13.79-6.77l15.34,7.67c-5.81,9.95-17.14,16-30.33,16-20.2,0-35.36-14.14-35.36-32.61s15.16-32.61,34.76-32.61Zm-12.11,25.17h23.37c-.9-6.59-5.21-10.37-11.81-10.37s-11.33,4.02-11.57,10.37Z"/>
  </g>
  <g>
    <path class="cls-2" d="m338.8,365.44h40.08l36.67,95.39,36.67-95.39h40.08l14.93,165.34h-37.68l-7.82-98-34.87,95.79h-22.65l-34.87-95.79-7.82,98h-37.68l14.93-165.34Z"/>
    <g>
      <path class="cls-1" d="m377.24,356.38c-28.9.99-73.12,13.03-73.69,21.96l4.59,31.41s42.24-42.61,103.9-16.68l-5.32-31.45s-.58-6.23-29.49-5.24Z"/>
      <path class="cls-1" d="m293.05,410.05c.32-3.5-2.13-6.6-5.55-7.14-1.13-3.29-5.31-16.89-1.3-27.94l12.78,2.48c.71-5,6.13-8.33,10.23-10.44,4.78-2.45,11.46-4.94,19.33-7.22,15.78-4.55,34.35-7.68,48.46-8.15,6.27-.22,11.74-.11,16.29.31,11.83,1.1,16.22,4.33,17.59,7.39l36.39-19.98-100.03-20-89.62,50.05,22.5,4.37c-.94,3.39-3.21,14.79,3.09,29.9-1.82,1.03-3.13,2.91-3.33,5.15-.23,2.53.99,4.86,2.98,6.16.21,2.83.42,9.73-2.08,14.06-3.2,5.55-7.89,7.86-9.3,8.32-.71.23-1.75.42-2.9.91-2.26.97-2.47,4.14-.38,5.44,3.13,1.95,9.2,4.48,20.68,5.85,4.53.54,8.73-2.57,9.46-7.07,1.25-7.66,1.4-19.59-6.51-29.2.67-.93,1.11-2.04,1.23-3.26Z"/>
    </g>
  </g>
</svg>